<svg id="visual" viewBox="0 0 900 600" width="900" height="600" xmlns="http://www.w3.org/2000/svg" xmlns:xlink="http://www.w3.org/1999/xlink" version="1.1"><path d="M0 67L13.7 70C27.3 73 54.7 79 82 80C109.3 81 136.7 77 163.8 74C191 71 218 69 245.2 68C272.3 67 299.7 67 327 69C354.3 71 381.7 75 409 82C436.3 89 463.7 99 491 100C518.3 101 545.7 93 573 93C600.3 93 627.7 101 654.8 100C682 99 709 89 736.2 83C763.3 77 790.7 75 818 78C845.3 81 872.7 89 886.3 93L900 97L900 0L886.3 0C872.7 0 845.3 0 818 0C790.7 0 763.3 0 736.2 0C709 0 682 0 654.8 0C627.7 0 600.3 0 573 0C545.7 0 518.3 0 491 0C463.7 0 436.3 0 409 0C381.7 0 354.3 0 327 0C299.7 0 272.3 0 245.2 0C218 0 191 0 163.8 0C136.7 0 109.3 0 82 0C54.7 0 27.3 0 13.7 0L0 0Z" fill="#eeeeee"></path><path d="M0 265L13.7 267C27.3 269 54.7 273 82 278C109.3 283 136.7 289 163.8 277C191 265 218 235 245.2 221C272.3 207 299.7 209 327 228C354.3 247 381.7 283 409 299C436.3 315 463.7 311 491 299C518.3 287 545.7 267 573 262C600.3 257 627.7 267 654.8 274C682 281 709 285 736.2 288C763.3 291 790.7 293 818 285C845.3 277 872.7 259 886.3 250L900 241L900 95L886.3 91C872.7 87 845.3 79 818 76C790.7 73 763.3 75 736.2 81C709 87 682 97 654.8 98C627.7 99 600.3 91 573 91C545.7 91 518.3 99 491 98C463.7 97 436.3 87 409 80C381.7 73 354.3 69 327 67C299.7 65 272.3 65 245.2 66C218 67 191 69 163.8 72C136.7 75 109.3 79 82 78C54.7 77 27.3 71 13.7 68L0 65Z" fill="#cde5f3"></path><path d="M0 403L13.7 408C27.3 413 54.7 423 82 422C109.3 421 136.7 409 163.8 393C191 377 218 357 245.2 347C272.3 337 299.7 337 327 350C354.3 363 381.7 389 409 403C436.3 417 463.7 419 491 412C518.3 405 545.7 389 573 389C600.3 389 627.7 405 654.8 418C682 431 709 441 736.2 437C763.3 433 790.7 415 818 401C845.3 387 872.7 377 886.3 372L900 367L900 239L886.3 248C872.7 257 845.3 275 818 283C790.7 291 763.3 289 736.2 286C709 283 682 279 654.8 272C627.7 265 600.3 255 573 260C545.7 265 518.3 285 491 297C463.7 309 436.3 313 409 297C381.7 281 354.3 245 327 226C299.7 207 272.3 205 245.2 219C218 233 191 263 163.8 275C136.7 287 109.3 281 82 276C54.7 271 27.3 267 13.7 265L0 263Z" fill="#a9ddf7"></path><path d="M0 601L13.7 601C27.3 601 54.7 601 82 601C109.3 601 136.7 601 163.8 601C191 601 218 601 245.2 601C272.3 601 299.7 601 327 601C354.3 601 381.7 601 409 601C436.3 601 463.7 601 491 601C518.3 601 545.7 601 573 601C600.3 601 627.7 601 654.8 601C682 601 709 601 736.2 601C763.3 601 790.7 601 818 601C845.3 601 872.7 601 886.3 601L900 601L900 365L886.3 370C872.7 375 845.3 385 818 399C790.7 413 763.3 431 736.2 435C709 439 682 429 654.8 416C627.7 403 600.3 387 573 387C545.7 387 518.3 403 491 410C463.7 417 436.3 415 409 401C381.7 387 354.3 361 327 348C299.7 335 272.3 335 245.2 345C218 355 191 375 163.8 391C136.7 407 109.3 419 82 420C54.7 421 27.3 411 13.7 406L0 401Z" fill="#7ed4fc"></path></svg>