<svg id="visual" viewBox="0 0 900 600" width="900" height="600" xmlns="http://www.w3.org/2000/svg" xmlns:xlink="http://www.w3.org/1999/xlink" version="1.1"><path d="M0 145L30 155C60 165 120 185 180 188C240 191 300 177 360 165C420 153 480 143 540 143C600 143 660 153 720 159C780 165 840 167 870 168L900 169L900 0L870 0C840 0 780 0 720 0C660 0 600 0 540 0C480 0 420 0 360 0C300 0 240 0 180 0C120 0 60 0 30 0L0 0Z" fill="#ffffff"></path><path d="M0 229L30 236C60 243 120 257 180 255C240 253 300 235 360 221C420 207 480 197 540 198C600 199 660 211 720 223C780 235 840 247 870 253L900 259L900 167L870 166C840 165 780 163 720 157C660 151 600 141 540 141C480 141 420 151 360 163C300 175 240 189 180 186C120 183 60 163 30 153L0 143Z" fill="#c6c6c6"></path><path d="M0 301L30 308C60 315 120 329 180 332C240 335 300 327 360 319C420 311 480 303 540 303C600 303 660 311 720 323C780 335 840 351 870 359L900 367L900 257L870 251C840 245 780 233 720 221C660 209 600 197 540 196C480 195 420 205 360 219C300 233 240 251 180 253C120 255 60 241 30 234L0 227Z" fill="#919191"></path><path d="M0 367L30 373C60 379 120 391 180 393C240 395 300 387 360 378C420 369 480 359 540 359C600 359 660 369 720 383C780 397 840 415 870 424L900 433L900 365L870 357C840 349 780 333 720 321C660 309 600 301 540 301C480 301 420 309 360 317C300 325 240 333 180 330C120 327 60 313 30 306L0 299Z" fill="#5e5e5e"></path><path d="M0 421L30 425C60 429 120 437 180 440C240 443 300 441 360 434C420 427 480 415 540 415C600 415 660 427 720 442C780 457 840 475 870 484L900 493L900 431L870 422C840 413 780 395 720 381C660 367 600 357 540 357C480 357 420 367 360 376C300 385 240 393 180 391C120 389 60 377 30 371L0 365Z" fill="#303030"></path><path d="M0 601L30 601C60 601 120 601 180 601C240 601 300 601 360 601C420 601 480 601 540 601C600 601 660 601 720 601C780 601 840 601 870 601L900 601L900 491L870 482C840 473 780 455 720 440C660 425 600 413 540 413C480 413 420 425 360 432C300 439 240 441 180 438C120 435 60 427 30 423L0 419Z" fill="#000000"></path></svg>